<?xml version="1.0" encoding="UTF-8"?>
<svg width="24px" height="24px" viewBox="0 0 24 24" version="1.1" xmlns="http://www.w3.org/2000/svg" xmlns:xlink="http://www.w3.org/1999/xlink">
    <title>考核模型</title>
    <g id="页面-1" stroke="none" stroke-width="1" fill="none" fill-rule="evenodd">
        <g id="图标" transform="translate(-66.000000, -111.000000)" fill-rule="nonzero">
            <g id="考核模型" transform="translate(66.000000, 111.000000)">
                <rect id="矩形" fill="#000000" opacity="0" x="0" y="0" width="24" height="24"></rect>
                <path d="M20.247,15 L20.247,15.954 C20.598,16.059 20.925,16.2285 21.2115,16.452 L21.4185,16.632 L22.245,16.152 L23.079,17.5965 L22.251,18.0735 C22.3365,18.429 22.353,18.7965 22.302,19.158 L22.251,19.4265 L23.079,19.9035 L22.245,21.3465 L21.4185,20.8695 C21.153,21.12 20.8425,21.3195 20.505,21.4545 L20.247,21.5445 L20.247,22.5 L18.582,22.5 L18.582,21.546 C18.2308914,21.4419894 17.9026223,21.272511 17.6145,21.0465 L17.4105,20.8695 L16.584,21.3465 L15.75,19.9035 L16.5765,19.4265 C16.4921586,19.0718326 16.4748615,18.7045238 16.5255,18.3435 L16.5765,18.0735 L15.75,17.5965 L16.584,16.1535 L17.409,16.6305 C17.676,16.38 17.985,16.1805 18.324,16.0455 L18.5805,15.9555 L18.5805,15 L20.247,15 L20.247,15 Z M21.45,6.738 C21.6388544,6.87964079 21.7499994,7.10193202 21.7499994,7.338 L21.7499994,14.0055 C19.6135778,12.9908378 17.0624577,13.5299794 15.5192452,15.3222779 C13.9760327,17.1145765 13.8217781,19.7174774 15.1425,21.6795 L13.737,22.1445 C13.508145,22.2207242 13.2565959,22.1822234 13.0610165,22.0410377 C12.8654371,21.8998519 12.7497006,21.6732149 12.7499994,21.432 L12.7499994,9.5445 C12.7499994,9.21116667 12.97,8.91783333 13.29,8.8245 L20.79,6.6195 C21.0166253,6.55340097 21.2611456,6.59785921 21.45,6.7395 L21.45,6.738 Z M3.21,6.627 L10.713,8.814 C11.033,8.90733333 11.2530006,9.20066667 11.2530006,9.534 L11.2530006,21.4305 C11.2532994,21.6717149 11.1375629,21.8983519 10.9419835,22.0395377 C10.7464041,22.1807234 10.494855,22.2192242 10.266,22.143 L2.763,19.6425 C2.45685477,19.5405334 2.25024501,19.2541795 2.25,18.9315 L2.25,7.347 C2.25,7.11093202 2.36114562,6.88864079 2.55,6.747 C2.73885438,6.60535921 2.98337474,6.56090097 3.21,6.627 L3.21,6.627 Z M19.4145,17.5005 C18.7244202,17.5005 18.165,18.0599202 18.165,18.75 C18.165,19.4400798 18.7244202,19.9995 19.4145,19.9995 C20.1045798,19.9995 20.664,19.4400798 20.664,18.75 C20.664,18.0599202 20.1045798,17.5005 19.4145,17.5005 Z M12.09,3.0105 L19.662,4.9125 C20.0325,5.0055 20.043,5.529 19.677,5.637 L12.105,7.854 C12.0364286,7.874 11.9635714,7.874 11.895,7.854 L4.3215,5.637 C3.9555,5.529 3.966,5.007 4.3365,4.9125 L11.907,3.0105 L11.91,3.0105 C11.9695873,2.99563812 12.0319127,2.99563812 12.0915,3.0105 L12.09,3.0105 Z" id="形状" fill="#0F5FDA"></path>
            </g>
        </g>
    </g>
</svg>