<?xml version="1.0" encoding="UTF-8"?>
<svg width="24px" height="24px" viewBox="0 0 24 24" version="1.1" xmlns="http://www.w3.org/2000/svg" xmlns:xlink="http://www.w3.org/1999/xlink">
    <title>公告</title>
    <g id="页面-1" stroke="none" stroke-width="1" fill="none" fill-rule="evenodd">
        <g id="图标" transform="translate(-104.000000, -111.000000)" fill-rule="nonzero">
            <g id="公告" transform="translate(104.000000, 111.000000)">
                <rect id="矩形" fill="#000000" opacity="0" x="0" y="0" width="24" height="24"></rect>
                <path d="M16.27425,2.74875 C16.4325309,3.00189981 16.5165,3.29444067 16.5165,3.59299999 L16.5165,20.40725 C16.5165,20.9863032 16.2023466,21.5197701 15.6958863,21.8004846 C15.189426,22.0811991 14.5705148,22.0649319 14.0795,21.758 L7.64125001,17.734 L4.23,17.734 C2.998405,17.734 1.99999999,16.735595 1.99999999,15.504 L1.99999999,8.49625001 C1.99999999,7.26465501 2.998405,6.26625 4.23,6.26625 L7.64125001,6.26625 L14.0795,2.2425 C14.4377315,2.0185547 14.8702591,1.94610633 15.2819122,2.04109599 C15.6935653,2.13608564 16.0506156,2.39073047 16.2745,2.74900001 L16.27425,2.74875 Z M19.0945,5.87824999 C19.4347787,5.64208969 19.9020735,5.72648256 20.13825,6.06675 C22.6194884,9.63135683 22.6205854,14.3634931 20.141,17.92925 C19.9018952,18.2608227 19.4412991,18.3398431 19.10535,18.1069275 C18.7694008,17.8740118 18.6818536,17.4149601 18.9085,17.07475 C21.0315686,14.0231831 21.0305712,9.97252094 18.906,6.92200001 C18.6698397,6.58172129 18.7542326,6.11442654 19.0945,5.87824999 L19.0945,5.87824999 Z" id="形状" fill="#0F5FDA"></path>
            </g>
        </g>
    </g>
</svg>