<?xml version="1.0" encoding="UTF-8"?>
<svg width="24px" height="24px" viewBox="0 0 24 24" version="1.1" xmlns="http://www.w3.org/2000/svg" xmlns:xlink="http://www.w3.org/1999/xlink">
    <title>民警</title>
    <g id="页面-1" stroke="none" stroke-width="1" fill="none" fill-rule="evenodd">
        <g id="图标" transform="translate(-32.000000, -111.000000)">
            <g id="民警" transform="translate(32.000000, 111.000000)">
                <rect id="矩形" x="0" y="0" width="24" height="24"></rect>
                <g id="民警1" transform="translate(1.000000, 1.000000)" fill-rule="nonzero">
                    <rect id="矩形" fill="#000000" opacity="0" x="0" y="0" width="22" height="22"></rect>
                    <path d="M10.5684685,4.95384614 L11,4.73230768 L11.4315315,4.95384614 L11.3594595,4.43692308 L11.6477478,4.06769229 L11.2162162,3.99384616 L11,3.5516923 L10.7837838,3.99384616 L10.3513514,4.06769229 L10.6387387,4.43692308 L10.5684685,4.95384614 Z M6.74774776,6.57846153 L6.74774776,7.02153846 C6.74774776,7.76000001 8.6936937,8.34984616 11,8.34984616 C13.3783784,8.34984616 15.2522522,7.75907694 15.2522522,7.02153846 L15.2522522,6.6523077 C14.3153153,6.35784617 12.6576576,6.13538461 10.7837838,6.13538461 C9.19819819,6.13538461 7.68468468,6.284 6.74774776,6.57846153 M5.95495495,4.95384614 C6.24234232,5.54461536 6.74774773,6.35784614 6.74774776,6.35784614 L6.74774776,6.4316923 C7.75675676,6.21015384 9.19819822,6.06246154 10.8558559,6.06246154 C12.7297297,6.06246154 14.3153153,6.284 15.3243243,6.5793846 L15.3243243,6.284 C15.3243243,6.284 15.8288288,5.47076923 16.1171171,4.88 C16.2612612,4.58461538 16.3333333,4.21538462 16.4054054,3.99384616 C16.4054054,3.77230769 16.2612613,3.62553846 16.0450451,3.47692307 C15.3243243,3.18153844 13.6666667,2.44307692 13.0189189,2.1476923 C12.8137706,2.05585614 12.5931738,2.00569761 12.3693694,2 L9.63063062,2 C9.41441441,2 9.12522522,2.07384616 8.98108108,2.1476923 C8.33333332,2.44307692 6.67567568,3.18153844 5.95495495,3.47784614 C5.73873873,3.62553844 5.59459459,3.77230767 5.59459459,3.99384616 C5.66666668,4.28923078 5.81081081,4.58461538 5.95495495,4.95384614 M10.0630631,3.03384615 C10.0630631,3.03384615 10.2792793,3.10769231 10.4954955,3.10769231 C10.7117117,3.10769231 11,2.88615385 11,2.88615385 C11,2.88615385 11.2882883,3.10769231 11.5045045,3.10769231 C11.7207207,3.10769231 11.9369369,3.03384615 11.9369369,3.03384615 L12.2963964,3.5516923 C12.2963964,3.5516923 12.0801802,3.69846153 12.0801802,3.91999999 C12.0801802,4.28923075 12.2243243,4.21538462 12.2243243,4.73230768 C12.2243243,5.39784613 10.9279279,5.76615385 10.9279279,5.76615385 C10.9279279,5.76615385 9.63063062,5.47076923 9.63063062,4.73230768 C9.7027027,4.21538459 9.91891892,4.28923075 9.91891892,3.91999999 C9.91891892,3.77230769 9.7027027,3.5516923 9.7027027,3.5516923 L10.0630631,3.03384615 Z M13.6666667,14.8492308 C13.2342342,14.6286154 12.8738739,14.4070769 12.8738739,14.2584615 L12.8738739,13.2246154 C12.8738739,13.2246154 15.1072072,11.3784615 15.1072072,8.27692307 L15.1072072,7.83384614 C14.6036036,8.42461539 12.9459459,8.79384615 11,8.79384615 C9.05405405,8.79384615 7.46846846,8.35076923 6.890991,7.83384614 L6.890991,8.27692307 C6.890991,11.3784615 9.12522524,13.2246154 9.12522522,13.2246154 L9.12522522,14.2584615 C9.12522522,14.48 8.69369368,14.7006154 8.33243243,14.8492308 C3.79279278,15.6615385 3,18.1732308 3,18.6163077 C3.21621622,20.3147692 9.77477478,20.4615385 10.8558559,20.4615385 C10.6396396,19.8707692 10.2792793,18.6892308 10.2792793,17.0646154 C10.2792793,16.4738462 11,16.4738462 11,16.4738461 C11,16.4738461 11.7207207,16.4738461 11.7207207,17.0646154 C11.7207207,18.6892308 11.3603604,19.8707692 11.1441441,20.4615385 C12.1522522,20.4615385 18.8558558,20.3147692 19,18.6163077 C19,18.1732308 18.2072072,15.6615385 13.6666667,14.8492308 M10.9279279,16.4747692 C10.4963964,16.4747692 10.1351351,16.1055385 10.1351351,15.7353846 C10.1351351,15.2932308 10.4954955,14.9969231 10.9279279,14.9969231 C11.3603604,14.9969231 11.7207207,15.3661538 11.7207207,15.7353846 C11.7207207,16.1046154 11.3594595,16.4747692 10.9279279,16.4747692" id="形状" fill="#0F5FDA"></path>
                </g>
            </g>
        </g>
    </g>
</svg>