<?xml version="1.0" encoding="UTF-8"?>
<svg width="24px" height="24px" viewBox="0 0 24 24" version="1.1" xmlns="http://www.w3.org/2000/svg" xmlns:xlink="http://www.w3.org/1999/xlink">
    <title>任务管理</title>
    <g id="页面-1" stroke="none" stroke-width="1" fill="none" fill-rule="evenodd">
        <g id="图标" transform="translate(-130.000000, -108.000000)" fill="#000000" fill-rule="nonzero">
            <g id="任务管理" transform="translate(130.000000, 108.000000)">
                <rect id="矩形" opacity="0" x="0" y="0" width="24" height="24"></rect>
                <path d="M7.875,7.875 C7.46015625,7.875 7.125,8.21015625 7.125,8.625 C7.125,9.03984375 7.46015625,9.375 7.875,9.375 C8.28984375,9.375 8.625,9.03984375 8.625,8.625 C8.625,8.21015625 8.28984375,7.875 7.875,7.875 Z M7.875,7.875 C7.46015625,7.875 7.125,8.21015625 7.125,8.625 C7.125,9.03984375 7.46015625,9.375 7.875,9.375 C8.28984375,9.375 8.625,9.03984375 8.625,8.625 C8.625,8.21015625 8.28984375,7.875 7.875,7.875 Z M7.875,7.875 C7.46015625,7.875 7.125,8.21015625 7.125,8.625 C7.125,9.03984375 7.46015625,9.375 7.875,9.375 C8.28984375,9.375 8.625,9.03984375 8.625,8.625 C8.625,8.21015625 8.28984375,7.875 7.875,7.875 Z M7.875,7.875 C7.46015625,7.875 7.125,8.21015625 7.125,8.625 C7.125,9.03984375 7.46015625,9.375 7.875,9.375 C8.28984375,9.375 8.625,9.03984375 8.625,8.625 C8.625,8.21015625 8.28984375,7.875 7.875,7.875 Z M18.375,2.25 L4.875,2.25 C4.05,2.25 3.375,2.925 3.375,3.75 L3.375,20.25 C3.375,21.075 4.05,21.75 4.875,21.75 L18.375,21.75 C19.2,21.75 19.875,21.075 19.875,20.25 L19.875,3.75 C19.875,2.925 19.2,2.25 18.375,2.25 Z M8.625,10.5 L8.625,13.5 C8.625,13.5515625 8.6203125,13.6007812 8.6109375,13.65 C9.27890625,13.9359375 9.75,14.6015625 9.75,15.375 C9.75,16.4109375 8.9109375,17.25 7.875,17.25 C6.8390625,17.25 6,16.4109375 6,15.375 C6,14.6015625 6.46875,13.9359375 7.1390625,13.65 C7.1296875,13.6007812 7.125,13.5515625 7.125,13.5 L7.125,10.5 C7.125,10.4484375 7.1296875,10.3992187 7.1390625,10.35 C6.46875,10.0640625 6,9.3984375 6,8.625 C6,7.5890625 6.8390625,6.75 7.875,6.75 C8.9109375,6.75 9.75,7.5890625 9.75,8.625 C9.75,9.3984375 9.28125,10.0640625 8.6109375,10.35 C8.6203125,10.3992188 8.625,10.4484375 8.625,10.5 Z M17.0296875,15.9046875 C16.89375,16.040625 16.70625,16.125 16.5,16.125 L12,16.125 C11.5875,16.125 11.25,15.7875 11.25,15.375 C11.25,15.16875 11.334375,14.98125 11.4703125,14.8453125 C11.60625,14.709375 11.79375,14.625 12,14.625 L16.5,14.625 C16.9125,14.625 17.25,14.9625 17.25,15.375 C17.25,15.58125 17.165625,15.76875 17.0296875,15.9046875 Z M17.0296875,12.5296875 C16.89375,12.665625 16.70625,12.75 16.5,12.75 L13.5,12.75 C13.0875,12.75 12.75,12.4125 12.75,12 C12.75,11.79375 12.834375,11.60625 12.9703125,11.4703125 C13.10625,11.334375 13.29375,11.25 13.5,11.25 L16.5,11.25 C16.9125,11.25 17.25,11.5875 17.25,12 C17.25,12.20625 17.165625,12.39375 17.0296875,12.5296875 Z M17.0296875,9.1546875 C16.89375,9.290625 16.70625,9.375 16.5,9.375 L12,9.375 C11.5875,9.375 11.25,9.0375 11.25,8.625 C11.25,8.41875 11.334375,8.23125 11.4703125,8.0953125 C11.60625,7.959375 11.79375,7.875 12,7.875 L16.5,7.875 C16.9125,7.875 17.25,8.2125 17.25,8.625 C17.25,8.83125 17.165625,9.01875 17.0296875,9.1546875 Z M7.875,7.875 C7.46015625,7.875 7.125,8.21015625 7.125,8.625 C7.125,9.03984375 7.46015625,9.375 7.875,9.375 C8.28984375,9.375 8.625,9.03984375 8.625,8.625 C8.625,8.21015625 8.28984375,7.875 7.875,7.875 Z M7.875,14.625 C7.46015625,14.625 7.125,14.9601562 7.125,15.375 C7.125,15.7898438 7.46015625,16.125 7.875,16.125 C8.28984375,16.125 8.625,15.7898438 8.625,15.375 C8.625,14.9601562 8.28984375,14.625 7.875,14.625 Z M7.875,7.875 C7.46015625,7.875 7.125,8.21015625 7.125,8.625 C7.125,9.03984375 7.46015625,9.375 7.875,9.375 C8.28984375,9.375 8.625,9.03984375 8.625,8.625 C8.625,8.21015625 8.28984375,7.875 7.875,7.875 Z M7.875,7.875 C7.46015625,7.875 7.125,8.21015625 7.125,8.625 C7.125,9.03984375 7.46015625,9.375 7.875,9.375 C8.28984375,9.375 8.625,9.03984375 8.625,8.625 C8.625,8.21015625 8.28984375,7.875 7.875,7.875 Z M7.875,7.875 C7.46015625,7.875 7.125,8.21015625 7.125,8.625 C7.125,9.03984375 7.46015625,9.375 7.875,9.375 C8.28984375,9.375 8.625,9.03984375 8.625,8.625 C8.625,8.21015625 8.28984375,7.875 7.875,7.875 Z M7.875,7.875 C7.46015625,7.875 7.125,8.21015625 7.125,8.625 C7.125,9.03984375 7.46015625,9.375 7.875,9.375 C8.28984375,9.375 8.625,9.03984375 8.625,8.625 C8.625,8.21015625 8.28984375,7.875 7.875,7.875 Z" id="形状"></path>
            </g>
        </g>
    </g>
</svg>